P2
# Created by IrfanView
50 50
255
202 203 203 203 206 207 209 211 210 211 211 212 214 215 215 216 216 
216 215 217 217 224 229 232 227 225 225 223 221 218 218 219 219 
220 219 218 219 219 219 221 222 220 221 222 221 222 222 224 225 
225 201 200 201 201 201 202 202 203 203 204 205 207 209 210 212 211 212 
213 215 216 219 227 231 233 230 226 225 222 221 220 218 218 218 
217 217 217 216 216 216 215 216 217 217 218 217 218 219 217 212 
223 204 204 202 200 200 200 201 203 203 205 207 211 211 212 213 211 175 
193 215 217 221 226 230 228 225 223 220 219 219 220 220 219 219 
218 218 218 218 215 215 214 213 215 215 216 216 216 216 218 218 
221 213 211 208 206 207 208 212 214 212 214 219 223 223 219 216 206 129 
123 204 225 220 200 203 204 206 215 214 217 216 218 218 219 220 
221 221 221 218 216 214 213 212 212 212 213 212 214 217 219 221 
224 226 223 220 218 218 221 227 230 233 230 229 229 228 225 222 220 157 
128 136 155 120 115 114 119 125 139 168 195 212 211 210 219 221 
220 222 223 220 218 215 214 211 210 212 214 218 221 225 229 228 
229 239 240 232 227 222 226 231 234 234 232 229 228 228 229 228 222 182 
145 128 111 110 110 108 103 98 96 105 120 149 201 214 218 219 
220 223 225 224 223 220 216 214 214 217 223 228 232 235 237 228 
223 245 246 242 237 230 229 229 230 228 227 224 224 223 223 224 220 164 
133 123 109 106 103 110 112 105 94 94 98 110 130 198 215 216 
219 221 223 224 224 222 221 221 221 222 225 229 229 231 235 232 
227 241 244 242 239 232 229 225 223 221 221 221 219 219 219 217 165 133 
121 106 97 92 90 91 98 101 100 90 96 99 110 131 202 215 
217 218 221 223 221 219 218 218 216 217 221 225 227 229 230 227 
221 232 234 234 233 228 224 220 217 216 217 217 217 216 215 188 129 123 
105 92 86 86 80 78 83 89 93 88 88 95 99 109 133 207 
214 215 217 219 218 216 213 211 212 214 217 222 228 228 224 219 
217 220 222 222 223 221 217 215 213 214 213 213 212 213 211 155 129 109 
90 84 75 76 68 64 66 75 83 86 78 86 91 110 105 164 
211 212 215 217 215 212 208 206 207 210 215 222 231 231 221 220 
220 212 212 213 214 213 213 213 214 213 213 211 212 212 205 148 118 95 
79 63 59 59 58 56 59 65 70 78 78 78 80 109 115 122 
205 207 209 211 210 211 213 212 212 214 218 220 226 226 222 223 
219 209 210 211 211 212 215 216 216 216 216 215 215 213 192 131 104 76 
64 59 57 49 52 61 64 55 53 68 73 72 70 89 126 112 
181 199 203 204 204 209 213 212 213 215 216 217 218 219 221 219 
215 208 207 205 203 205 208 209 210 209 208 209 209 207 171 92 74 62 
54 50 47 43 46 61 58 53 43 48 67 72 68 75 102 110 
161 195 197 197 199 205 206 206 208 207 207 211 214 213 212 210 
209 205 202 198 199 199 203 203 206 205 204 206 206 204 144 74 67 59 
53 51 50 45 43 49 48 42 40 41 46 57 65 67 86 98 
136 196 196 196 195 197 199 199 199 202 204 207 210 209 207 204 
199 201 203 203 202 202 203 204 205 205 208 210 214 214 130 72 68 63 
67 73 74 72 62 41 40 40 48 64 57 44 47 54 62 73 
113 201 201 200 198 198 199 201 201 206 205 204 204 204 202 199 
200 200 200 202 202 205 210 211 213 214 214 215 217 219 120 73 71 76 
75 75 72 70 51 43 55 64 67 67 62 53 43 37 42 58 
97 203 206 205 203 202 201 201 202 203 204 203 201 202 202 202 
204 202 202 204 207 210 213 214 216 217 217 214 214 209 126 72 75 76 
72 68 60 46 46 53 63 136 201 168 69 59 61 54 53 51 
122 205 205 204 204 202 200 199 200 204 208 209 207 208 208 208 
207 211 212 210 208 209 211 210 208 211 212 210 210 209 142 81 69 69 
65 47 43 47 69 147 204 211 210 200 68 41 87 73 57 92 
112 208 209 205 203 201 201 200 199 202 203 205 207 208 209 210 
209 205 207 207 204 207 208 206 208 210 212 212 211 211 159 87 58 52 
45 52 57 99 196 215 215 215 216 209 79 41 163 181 71 51 
83 192 218 209 204 204 205 206 205 203 203 204 205 204 206 208 
208 208 207 204 205 207 207 206 209 213 214 215 214 211 178 94 71 63 
57 60 111 200 209 212 214 215 214 216 206 193 207 207 188 77 
95 189 231 220 205 204 204 205 203 200 199 200 201 204 207 207 
209 212 209 204 206 208 207 206 210 211 211 210 211 210 202 82 73 62 
66 126 207 211 208 208 211 213 211 213 210 210 207 205 208 194 
140 194 218 211 199 195 202 201 198 196 196 197 198 201 201 201 
201 210 208 195 184 207 206 207 208 207 205 206 211 214 224 89 57 69 
66 185 206 204 203 207 209 210 208 207 210 209 208 205 203 202 
196 196 200 202 199 203 208 206 203 201 199 199 201 203 202 202 
201 207 205 204 204 203 202 201 200 199 198 201 203 206 208 129 51 89 
91 205 208 209 212 210 209 207 209 210 210 210 208 206 205 204 
201 201 203 202 202 202 200 199 199 199 200 197 197 198 197 196 
196 201 203 210 208 203 205 206 206 207 207 208 208 207 204 162 66 99 
132 200 202 204 204 205 207 206 208 212 216 211 210 219 210 208 
206 207 204 202 206 204 200 199 198 198 199 201 199 195 195 193 
191 202 202 207 207 207 211 210 209 208 206 204 204 202 200 194 109 99 
159 197 201 202 198 199 201 205 208 211 212 211 215 214 207 204 
203 204 204 200 198 196 196 199 205 211 212 209 203 201 191 190 
190 198 199 197 197 198 199 201 200 202 201 200 199 198 199 199 160 104 
170 198 199 200 202 201 200 202 201 201 201 202 202 201 198 197 
195 194 195 197 198 196 197 198 198 200 198 197 195 196 194 190 
190 194 193 193 193 193 195 197 198 199 197 197 195 195 194 192 169 97 
169 194 194 194 195 194 194 195 195 196 195 196 196 195 194 194 
193 191 190 191 193 192 191 194 193 190 188 187 189 187 187 189 
188 187 188 189 189 188 190 192 193 194 193 191 191 191 192 191 164 95 
158 191 191 192 191 190 189 191 191 192 191 190 190 189 189 188 
189 189 189 189 188 187 186 188 185 184 184 184 184 183 181 181 
182 184 185 185 186 187 185 187 189 189 189 188 188 187 186 183 160 121 
109 162 175 182 187 186 183 187 187 187 187 187 186 186 186 184 
185 184 185 184 175 181 183 183 182 181 181 180 181 180 178 177 
178 177 179 177 177 181 179 182 183 184 184 184 184 181 180 179 159 124 
90 58 53 57 71 95 132 167 176 174 174 180 179 158 175 178 
178 179 179 177 150 171 152 142 172 173 175 174 173 173 171 169 
168 152 145 134 121 131 139 137 135 138 150 138 147 150 159 121 129 120 
86 38 17 15 18 22 28 71 143 145 136 149 164 166 174 169 
169 166 172 166 166 168 160 173 146 148 199 194 200 198 174 167 
158 133 134 132 116 131 136 118 111 140 122 134 118 118 82 47 90 100 
67 21 10 9 14 14 11 17 90 118 105 112 111 110 110 111 
114 115 114 110 111 109 125 129 138 129 132 133 129 133 136 138 
135 149 150 148 148 149 152 153 152 150 152 152 150 124 27 15 74 109 
52 49 11 36 93 112 130 128 133 143 142 151 149 145 140 141 
139 146 151 156 153 150 146 145 142 140 138 127 138 148 147 150 
147 141 143 142 145 148 146 144 142 142 141 142 141 47 28 25 80 91 
109 116 125 150 151 147 136 130 134 124 124 128 134 144 154 156 
158 157 157 155 152 151 149 150 145 140 129 115 128 133 134 130 
141 152 150 153 153 155 152 153 153 154 155 155 133 10 15 70 135 136 
156 153 158 159 155 153 156 157 155 156 156 157 154 156 157 155 
156 158 157 159 156 159 160 157 158 158 159 159 162 163 164 163 
164 150 147 150 146 147 148 152 149 151 150 152 135 19 124 154 156 166 
161 153 156 153 156 154 153 156 154 154 155 155 155 156 156 153 
155 155 155 157 156 153 155 154 153 154 157 156 159 160 159 155 
159 146 144 145 148 148 147 147 146 145 146 148 145 137 148 153 153 167 
161 148 146 142 148 145 146 147 146 147 148 151 150 150 153 151 
152 156 157 155 155 153 153 153 155 157 158 160 163 162 164 163 
164 152 153 153 154 153 154 155 156 156 155 156 156 155 154 155 158 159 
161 153 150 151 151 154 153 154 155 157 158 158 158 159 158 157 
159 161 160 157 158 156 156 155 156 157 159 159 161 161 160 159 
158 155 159 158 156 156 157 157 157 159 161 161 163 160 162 159 169 167 
157 159 158 155 154 158 159 159 157 158 157 157 158 158 160 159 
162 159 159 159 159 155 157 156 157 158 159 161 162 161 160 160 
158 154 155 154 156 155 155 159 160 157 156 157 155 159 161 160 160 171 
157 155 154 157 158 154 159 157 156 153 156 153 154 154 155 154 
156 153 155 154 152 154 153 153 154 156 156 157 157 158 157 157 
157 155 156 152 149 150 150 154 149 145 150 150 155 149 149 157 165 170 
157 153 151 150 150 149 148 147 150 149 152 149 150 151 150 150 
151 152 151 151 149 148 148 149 150 149 152 152 153 155 155 150 
150 152 150 148 147 147 149 151 149 149 148 147 148 146 148 162 165 167 
157 151 151 152 153 148 150 149 150 149 143 148 148 147 148 146 
149 151 150 148 146 147 148 147 145 146 147 150 152 151 151 149 
150 147 144 144 144 146 147 148 147 146 146 143 146 144 143 154 153 159 
154 143 146 147 147 144 143 146 142 143 143 141 146 142 143 142 
143 143 143 143 141 144 143 144 143 142 144 145 147 145 145 143 
146 143 143 143 144 141 141 144 144 142 144 142 144 143 147 154 171 162 
153 148 151 147 146 146 146 148 146 146 145 145 145 142 140 140 
143 142 142 141 141 142 142 142 141 140 141 139 141 140 141 138 
139 142 142 141 141 141 140 141 142 144 143 139 138 139 139 141 170 177 
150 145 140 140 141 146 141 143 143 140 140 140 139 137 135 137 
137 136 136 135 138 139 141 140 138 135 134 136 142 143 143 141 
144 141 140 140 138 135 137 135 133 137 137 139 139 139 137 139 162 165 
163 148 141 139 140 142 136 135 136 139 141 136 139 143 142 142 
142 139 139 140 141 140 140 140 139 137 138 135 138 140 142 142 
141 137 137 138 138 138 139 138 139 138 137 140 140 140 134 134 149 156 
162 146 144 140 146 139 142 140 139 137 140 137 137 136 132 133 
134 137 137 138 137 134 133 135 133 131 130 132 134 134 139 137 
135 141 139 139 138 138 139 137 137 139 138 138 137 137 136 134 135 160 
159 158 144 141 141 138 136 136 137 135 135 136 134 135 135 131 
132 133 135 135 137 136 132 133 133 133 132 131 131 133 134 132 
136 134 134 134 133 136 135 138 139 137 137 135 135 132 135 136 135 155 
157 152 143 134 136 141 135 137 134 135 133 136 135 134 133 132 
132 133 136 132 131 131 131 132 132 134 133 137 139 138 138 136 
134 137 135 131 127 122 127 128 132 134 133 129 125 124 127 128 134 161 
149 157 149 134 130 129 131 130 134 133 130 131 131 130 125 126 
127 122 124 123 122 122 121 125 123 122 119 123 123 122 122 121 
124 