P2
# Created by IrfanView
20 20
255
0 0 0 0 0 0 0 0 0 0 0 0 0 0 0 0 0 
0 0 0 0 0 0 0 0 0 0 0 0 0 0 0 0 0 0 0 0 
0 0 0 0 0 0 0 0 0 0 0 0 0 0 0 0 0 0 0 0 
0 0 0 0 0 0 0 0 0 0 0 0 0 0 0 0 0 0 0 0 
0 0 0 0 0 0 0 0 0 0 0 0 0 0 0 0 0 0 0 0 
0 0 0 0 0 0 0 0 0 0 0 0 0 0 0 0 0 0 0 0 
0 0 0 0 0 0 0 0 0 0 0 0 0 2 13 9 0 0 0 0 
0 0 0 0 0 0 8 26 40 57 70 77 83 91 87 81 60 42 27 8 
0 0 0 0 24 59 92 92 72 46 28 29 78 123 154 166 140 79 99 94 
58 20 0 22 67 87 53 12 2 5 7 44 103 145 179 207 216 15 34 99 
102 69 14 11 42 6 0 0 0 11 12 65 117 151 176 196 201 26 62 107 
85 58 5 0 4 32 50 74 84 32 12 81 132 166 190 207 158 95 82 51 
25 2 0 0 0 0 0 1 10 15 7 83 135 168 191 144 25 7 0 0 
0 0 0 0 0 0 0 0 0 0 0 23 67 79 46 1 0 0 0 0 
0 0 0 0 0 0 0 0 0 0 0 0 0 0 0 0 0 0 0 0 
0 0 0 0 0 0 0 0 0 0 0 0 0 0 0 0 0 0 0 0 
0 0 0 0 0 0 0 0 0 0 0 0 0 0 0 0 0 0 0 0 
0 0 0 0 0 0 0 0 0 0 0 0 0 0 0 0 0 0 0 0 
0 0 0 0 0 0 0 0 0 0 0 0 0 0 0 0 0 0 0 0 
0 0 0 0 0 0 0 0 0 0 0 0 0 0 0 0 0 0 0 0 
0 0 0 